<svg xmlns="http://www.w3.org/2000/svg" width="300" height="72" viewBox="0 0 300 72" role="img" aria-label="PixelDrop"><defs><linearGradient id="pdLogoGrad" x1="0" y1="0" x2="1" y2="1"><stop offset="0" stop-color="#6b8cff"/><stop offset="1" stop-color="#b06bff"/></linearGradient><linearGradient id="pdTextGrad" x1="0" y1="0" x2="1" y2="0"><stop offset="0" stop-color="#7f9bff"/><stop offset="1" stop-color="#c084ff"/></linearGradient></defs><g transform="translate(4,4)"><rect width="64" height="64" rx="14" fill="url(#pdLogoGrad)"/><rect x="29.25" y="7.25" width="4.8" height="4.8" rx="1.1" fill="#ffffff"/><rect x="29.25" y="12.75" width="4.8" height="4.8" rx="1.1" fill="#ffffff"/><rect x="23.75" y="18.25" width="4.8" height="4.8" rx="1.1" fill="#ffffff"/><rect x="29.25" y="18.25" width="4.8" height="4.8" rx="1.1" fill="#ffffff"/><rect x="34.75" y="18.25" width="4.8" height="4.8" rx="1.1" fill="#ffffff"/><rect x="18.25" y="23.75" width="4.8" height="4.8" rx="1.1" fill="#ff3b57"/><rect x="23.75" y="23.75" width="4.8" height="4.8" rx="1.1" fill="#ffffff"/><rect x="29.25" y="23.75" width="4.8" height="4.8" rx="1.1" fill="#ffffff"/><rect x="34.75" y="23.75" width="4.8" height="4.8" rx="1.1" fill="#ffffff"/><rect x="40.25" y="23.75" width="4.8" height="4.8" rx="1.1" fill="#ffffff"/><rect x="18.25" y="29.25" width="4.8" height="4.8" rx="1.1" fill="#ffffff"/><rect x="23.75" y="29.25" width="4.8" height="4.8" rx="1.1" fill="#ffffff"/><rect x="29.25" y="29.25" width="4.8" height="4.8" rx="1.1" fill="#ffffff"/><rect x="34.75" y="29.25" width="4.8" height="4.8" rx="1.1" fill="#ffffff"/><rect x="40.25" y="29.25" width="4.8" height="4.8" rx="1.1" fill="#ffd23e"/><rect x="12.75" y="34.75" width="4.8" height="4.8" rx="1.1" fill="#22e07a"/><rect x="18.25" y="34.75" width="4.8" height="4.8" rx="1.1" fill="#ffffff"/><rect x="23.75" y="34.75" width="4.8" height="4.8" rx="1.1" fill="#ffffff"/><rect x="29.25" y="34.75" width="4.8" height="4.8" rx="1.1" fill="#ffffff"/><rect x="34.75" y="34.75" width="4.8" height="4.8" rx="1.1" fill="#ffffff"/><rect x="40.25" y="34.75" width="4.8" height="4.8" rx="1.1" fill="#ffffff"/><rect x="45.75" y="34.75" width="4.8" height="4.8" rx="1.1" fill="#ffffff"/><rect x="12.75" y="40.25" width="4.8" height="4.8" rx="1.1" fill="#ffffff"/><rect x="18.25" y="40.25" width="4.8" height="4.8" rx="1.1" fill="#ffffff"/><rect x="23.75" y="40.25" width="4.8" height="4.8" rx="1.1" fill="#ffffff"/><rect x="29.25" y="40.25" width="4.8" height="4.8" rx="1.1" fill="#ffffff"/><rect x="34.75" y="40.25" width="4.8" height="4.8" rx="1.1" fill="#ffffff"/><rect x="40.25" y="40.25" width="4.8" height="4.8" rx="1.1" fill="#ffffff"/><rect x="45.75" y="40.25" width="4.8" height="4.8" rx="1.1" fill="#37c6ff"/><rect x="18.25" y="45.75" width="4.8" height="4.8" rx="1.1" fill="#ffffff"/><rect x="23.75" y="45.75" width="4.8" height="4.8" rx="1.1" fill="#ffffff"/><rect x="29.25" y="45.75" width="4.8" height="4.8" rx="1.1" fill="#ffffff"/><rect x="34.75" y="45.75" width="4.8" height="4.8" rx="1.1" fill="#b06bff"/><rect x="40.25" y="45.75" width="4.8" height="4.8" rx="1.1" fill="#ffffff"/><rect x="23.75" y="51.25" width="4.8" height="4.8" rx="1.1" fill="#ffffff"/><rect x="29.25" y="51.25" width="4.8" height="4.8" rx="1.1" fill="#ffffff"/><rect x="34.75" y="51.25" width="4.8" height="4.8" rx="1.1" fill="#ffffff"/></g><text x="80" y="46" font-family="Segoe UI, Arial, sans-serif" font-size="34" font-weight="900" letter-spacing="-1" fill="url(#pdTextGrad)">PixelDrop</text></svg>