<svg xmlns="http://www.w3.org/2000/svg" width="64" height="64" viewBox="0 0 64 64" role="img" aria-label="PebbleDrop">
  <defs>
    <linearGradient id="pdSky" x1="0" y1="0" x2="0" y2="1"><stop offset="0" stop-color="#cfe3d2"/><stop offset="1" stop-color="#7fa886"/></linearGradient>
    <linearGradient id="pdStone1" x1="0" y1="0" x2="1" y2="1"><stop offset="0" stop-color="#eceae4"/><stop offset="1" stop-color="#b3aca0"/></linearGradient>
    <linearGradient id="pdStone2" x1="0" y1="0" x2="1" y2="1"><stop offset="0" stop-color="#b9b2a6"/><stop offset="1" stop-color="#756c61"/></linearGradient>
    <linearGradient id="pdStone3" x1="0" y1="0" x2="1" y2="1"><stop offset="0" stop-color="#8a8175"/><stop offset="1" stop-color="#4d463e"/></linearGradient>
  </defs>
  <rect width="64" height="64" rx="14" fill="url(#pdSky)"/>
  <path d="M0 44 L18 24 L30 38 L40 28 L64 48 L64 64 L0 64 Z" fill="#5d7f68" opacity="0.55"/>
  <path d="M12 46 L17 30 L22 46 Z" fill="#33543f"/>
  <path d="M46 47 L51 33 L56 47 Z" fill="#33543f" opacity="0.9"/>
  <path d="M0 50 Q32 44 64 50 L64 64 L0 64 Z" fill="#3f5138"/>
  <ellipse cx="32" cy="50" rx="13" ry="6.5" fill="url(#pdStone3)"/>
  <ellipse cx="32" cy="41" rx="9.5" ry="5.5" fill="url(#pdStone2)"/>
  <ellipse cx="32" cy="33" rx="6" ry="4.2" fill="url(#pdStone1)"/>
  <ellipse cx="30" cy="31.6" rx="2.4" ry="1.3" fill="#ffffff" opacity="0.65"/>
</svg>
